<?xml version="1.0" standalone="no"?>
<!DOCTYPE svg PUBLIC "-//W3C//DTD SVG 20010904//EN"
 "http://www.w3.org/TR/2001/REC-SVG-20010904/DTD/svg10.dtd">
<svg version="1.0" xmlns="http://www.w3.org/2000/svg"
 width="612.000000pt" height="612.000000pt" viewBox="0 0 612.000000 612.000000"
 preserveAspectRatio="xMidYMid meet">

<g transform="translate(0.000000,612.000000) scale(0.100000,-0.100000)"
fill="#000000" stroke="none">
<path d="M1 4713 c1 -1196 3 -1392 14 -1303 125 1033 744 1920 1664 2384 323
163 668 267 1031 311 89 11 -107 13 -1302 14 l-1408 1 1 -1407z"/>
<path d="M3410 6105 c1033 -125 1920 -744 2384 -1664 163 -323 267 -668 311
-1031 11 -89 13 107 14 1303 l1 1407 -1407 -1 c-1196 -1 -1392 -3 -1303 -14z"/>
<path d="M2813 6053 c10 -16 -87 -37 -134 -29 -21 3 -39 3 -39 -2 0 -4 -17 -8
-37 -8 -53 -1 -158 -41 -227 -87 -129 -87 -226 -218 -271 -367 -23 -75 -25
-96 -20 -175 9 -127 29 -213 63 -282 21 -40 28 -64 21 -74 -22 -34 0 -145 50
-251 16 -35 32 -71 35 -80 3 -9 16 -24 29 -33 29 -19 68 -6 86 29 11 21 11 21
5 -1 -3 -14 -1 -23 6 -23 6 0 9 -4 6 -9 -3 -5 1 -12 10 -15 9 -4 14 -13 10
-21 -3 -8 -1 -15 4 -15 6 0 10 -6 10 -12 0 -7 18 -33 40 -58 22 -25 52 -75 66
-111 l26 -66 -20 -39 c-17 -35 -18 -49 -10 -124 4 -47 24 -135 43 -196 19 -61
35 -116 35 -122 0 -6 5 -14 12 -18 7 -5 8 -3 3 6 -5 9 -4 11 4 6 6 -4 9 -11 7
-15 -8 -12 51 -64 63 -56 7 3 10 1 9 -6 -4 -17 49 -52 103 -68 24 -7 51 -17
59 -22 8 -5 29 -16 45 -24 17 -8 23 -14 15 -14 -8 0 -26 6 -40 14 -14 8 -34
14 -45 15 -19 0 -19 0 0 -14 11 -7 31 -17 45 -21 14 -4 38 -19 54 -32 l30 -25
12 24 c17 34 28 77 15 58 -6 -8 -11 -10 -11 -4 0 6 9 19 20 29 13 12 20 31 20
54 0 45 34 87 104 134 27 17 54 41 60 52 6 11 15 23 19 26 5 3 7 8 6 10 -2 2
9 25 24 50 41 69 105 229 121 300 22 96 26 195 9 219 -17 25 -50 26 -56 3 -3
-10 -5 7 -6 37 0 31 -5 60 -10 65 -4 6 -3 52 3 105 l11 95 30 -2 c17 -1 23 0
15 4 -21 8 -50 34 -50 45 0 5 12 2 28 -6 23 -12 29 -12 40 1 12 12 11 18 -5
36 -10 12 -22 25 -28 29 -5 4 -2 10 8 14 12 4 23 0 31 -11 19 -26 26 -9 38 99
13 106 4 144 -37 166 -21 11 -24 18 -18 55 3 23 1 58 -5 76 -6 19 -18 96 -27
173 -14 122 -31 186 -47 171 -3 -3 -13 7 -23 22 -21 32 -55 62 -71 63 -27 1
-92 41 -97 61 -4 16 -11 20 -24 15 -9 -4 -14 -4 -10 0 3 4 -11 16 -33 26 -27
14 -45 33 -60 63 -19 39 -50 63 -72 57 -5 -1 -8 2 -8 7 0 5 -8 11 -17 14 -10
2 -27 8 -37 13 -13 5 -17 4 -13 -3z m85 -382 c8 -5 28 -5 44 -1 15 5 30 5 33
0 3 -5 19 -7 35 -4 20 4 34 1 45 -10 9 -9 14 -16 11 -16 -3 0 3 -15 13 -32 10
-18 21 -46 25 -63 4 -16 26 -67 48 -112 22 -45 41 -88 42 -95 5 -24 17 -53 48
-111 18 -37 31 -80 34 -115 7 -75 13 -102 23 -102 12 0 31 48 31 81 0 27 2 29
21 19 38 -21 35 -41 -10 -82 -24 -21 -48 -35 -55 -31 -6 4 -4 -2 4 -12 9 -10
11 -20 5 -22 -6 -1 -9 -32 -8 -68 1 -60 0 -64 -17 -55 -15 8 -23 5 -39 -16
-12 -15 -21 -34 -21 -43 0 -22 -18 -44 -116 -145 -77 -79 -83 -83 -145 -96
-35 -7 -80 -19 -100 -26 -20 -7 -62 -15 -93 -19 l-57 -7 -59 60 c-59 61 -70
84 -72 162 -1 54 1 60 18 60 10 0 14 -6 11 -14 -6 -16 34 -48 82 -64 38 -13
46 -11 54 18 4 16 -1 24 -19 32 -31 14 -30 21 2 38 23 13 24 15 8 27 -12 9
-22 9 -36 2 -43 -23 -84 -14 -42 9 12 6 14 14 8 25 -8 14 -15 11 -53 -18 -34
-27 -47 -32 -61 -25 -15 8 -23 5 -38 -15 l-19 -24 -22 23 c-11 12 -21 28 -21
34 0 7 -6 12 -13 12 -13 0 -67 86 -77 123 -7 27 -22 22 -36 -12 -8 -19 -9 -31
-3 -31 6 0 7 -4 4 -10 -11 -18 -21 -11 -25 18 -6 36 -3 208 3 251 6 33 17 55
17 33 0 -6 7 -9 15 -6 8 4 15 13 15 21 0 8 12 27 28 42 21 21 38 28 75 30 81
4 109 -17 53 -39 -18 -8 -16 -9 14 -11 l35 -2 -35 -6 c-19 -4 -38 -3 -41 1 -7
10 -108 -19 -124 -36 -28 -28 -40 -122 -17 -131 7 -3 23 2 35 10 12 8 29 15
37 15 9 0 27 11 40 25 23 25 23 25 2 25 -28 0 -34 13 -18 35 13 18 15 18 37
-7 19 -21 28 -25 47 -18 15 6 22 18 22 35 0 26 21 33 49 16 10 -7 8 -12 -10
-24 -23 -16 -23 -17 10 -12 30 3 32 2 18 -13 -23 -26 -49 -82 -38 -82 16 0 22
-35 12 -63 -9 -23 -7 -26 12 -29 16 -2 28 6 44 29 36 53 45 73 54 127 4 28 11
65 14 81 6 26 2 33 -25 50 -36 22 -64 41 -105 70 -29 20 -77 24 -147 11 -33
-5 -40 -3 -54 19 -13 20 -14 29 -5 38 6 6 11 19 11 29 0 11 9 35 19 56 10 20
18 39 18 42 -3 21 75 81 123 95 14 4 43 18 65 30 31 17 52 22 92 19 29 -2 70
0 90 5 42 9 97 5 121 -8z m-298 -451 c8 -5 11 -10 5 -10 -5 0 -17 5 -25 10 -8
5 -10 10 -5 10 6 0 17 -5 25 -10z m784 -62 c8 -49 1 -60 -15 -24 -7 14 -18 26
-26 26 -25 0 -14 35 11 36 20 2 25 -4 30 -38z m-1109 -326 c-3 -3 -11 0 -18 7
-9 10 -8 11 6 5 10 -3 15 -9 12 -12z m62 -145 c-12 -12 -24 -18 -26 -14 -4 11
30 48 40 42 4 -3 -2 -15 -14 -28z m943 -258 c0 -10 5 -21 10 -24 6 -3 10 -26
10 -51 0 -48 -37 -132 -94 -214 -57 -82 -85 -133 -89 -159 -2 -11 -20 -37 -40
-57 -20 -21 -37 -41 -37 -46 0 -5 -18 -17 -40 -27 -47 -21 -93 -77 -85 -102 8
-23 -30 -29 -68 -11 -49 24 -74 63 -138 220 -7 19 -4 27 16 46 28 26 25 44
-15 125 -12 24 -23 62 -25 85 l-3 41 47 -51 c26 -27 60 -67 75 -87 16 -20 35
-37 42 -37 17 0 19 41 2 58 -16 16 5 53 43 76 41 24 38 52 -5 60 -21 4 -45 19
-60 37 -25 30 -43 75 -34 85 11 10 134 25 217 26 48 0 104 7 126 15 94 34 145
31 145 -8z m-610 -149 c0 -11 -2 -20 -4 -20 -2 0 -6 9 -9 20 -3 11 -1 20 4 20
5 0 9 -9 9 -20z m548 -250 c-7 -10 -14 -17 -17 -15 -4 4 18 35 25 35 2 0 -1
-9 -8 -20z"/>
<path d="M3007 5458 c-15 -6 -24 -14 -21 -20 5 -7 -2 -9 -21 -4 -34 9 -116
-17 -140 -44 -10 -11 -19 -36 -20 -55 -1 -19 -10 -46 -19 -59 -9 -14 -16 -29
-16 -33 0 -4 19 -28 43 -53 42 -45 73 -98 62 -108 -3 -3 -5 0 -5 7 0 7 -4 9
-10 6 -16 -10 -12 -23 10 -30 28 -9 41 2 31 28 -11 32 -3 55 22 59 18 3 15 7
-21 31 -23 15 -42 32 -42 37 0 6 21 10 46 10 25 0 53 4 62 9 11 6 33 5 59 -2
35 -9 45 -8 60 5 10 8 26 18 36 22 18 6 18 7 -2 38 -26 41 -52 48 -147 37 -42
-4 -81 -6 -86 -3 -9 6 53 54 69 54 4 0 21 7 37 15 15 8 32 13 36 10 5 -3 10 0
12 5 2 6 21 2 47 -10 52 -26 60 -21 29 14 -28 32 -74 46 -111 34z m-43 -137
c-17 -4 -36 -11 -42 -15 -7 -4 -12 -3 -12 3 0 11 24 19 60 19 21 0 20 -1 -6
-7z m70 -27 c23 -9 20 -31 -5 -39 -26 -9 -30 -5 -22 23 6 25 5 24 27 16z
m-145 -7 c-2 -1 -14 -11 -26 -21 -23 -19 -23 -19 -23 0 0 14 8 20 27 22 14 1
25 1 22 -1z m40 -45 c-11 -2 -27 -1 -36 2 -14 6 -14 9 3 27 l18 20 18 -23 c16
-22 16 -23 -3 -26z"/>
<path d="M2792 4980 c-27 -15 -40 -16 -69 -8 -37 10 -83 4 -83 -11 0 -16 133
-11 152 6 13 11 32 14 73 11 30 -3 55 -1 55 4 0 5 -4 7 -9 3 -5 -3 -12 -1 -16
5 -10 16 -67 11 -103 -10z"/>
<path d="M3242 4933 c-8 -15 -9 -24 -1 -28 15 -10 21 0 17 27 l-3 23 -13 -22z"/>
<path d="M2638 4913 c7 -3 16 -2 19 1 4 3 -2 6 -13 5 -11 0 -14 -3 -6 -6z"/>
<path d="M2692 4896 c-21 -11 -22 -14 -7 -26 18 -15 27 -9 32 20 3 23 5 23
-25 6z"/>
<path d="M3265 4881 c-3 -5 -1 -12 5 -16 5 -3 10 1 10 9 0 18 -6 21 -15 7z"/>
<path d="M2910 4829 c0 -11 7 -19 18 -19 13 -1 11 -6 -11 -25 -33 -29 -14 -34
34 -10 16 9 35 13 41 9 6 -4 8 -3 4 4 -3 5 0 12 6 15 22 8 -7 29 -51 37 -36 6
-41 5 -41 -11z"/>
<path d="M2765 4700 c-14 -7 -3 -8 34 -5 30 3 57 7 59 10 9 9 -72 4 -93 -5z"/>
<path d="M3530 4185 c-9 -43 -9 -60 -1 -63 6 -2 11 -15 11 -29 0 -21 -3 -23
-14 -14 -11 9 -15 6 -18 -19 -3 -16 -1 -30 4 -30 4 0 8 5 8 10 0 6 6 10 14 10
8 0 18 19 25 44 14 58 14 77 -3 117 l-14 33 -12 -59z"/>
<path d="M3854 4145 c-7 -19 -14 -47 -14 -62 1 -26 2 -26 19 12 28 60 34 85
21 85 -6 0 -18 -16 -26 -35z"/>
<path d="M4341 4122 c-19 -9 -37 -24 -39 -32 -3 -13 -2 -13 6 -1 6 8 30 23 54
32 24 10 36 18 28 18 -8 1 -30 -7 -49 -17z"/>
<path d="M4036 4099 c-3 -17 -6 -75 -5 -128 l1 -96 14 70 c13 68 15 185 3 185
-4 0 -9 -14 -13 -31z"/>
<path d="M2371 4069 c-27 -30 -17 -107 18 -137 13 -11 21 -30 22 -52 3 -77 40
-120 47 -54 2 16 11 35 20 42 9 7 11 12 4 12 -7 0 -12 5 -12 11 0 5 4 8 8 5 8
-5 4 155 -4 163 -2 2 -15 -6 -29 -19 -21 -19 -25 -21 -25 -7 0 9 -5 17 -10 17
-7 0 -7 6 0 20 15 28 -12 27 -39 -1z"/>
<path d="M3494 3986 c-3 -14 -4 -33 -1 -43 3 -14 8 -9 20 19 21 46 21 48 2 48
-8 0 -17 -11 -21 -24z"/>
<path d="M4106 3964 c-4 -14 -5 -29 -2 -31 3 -3 8 7 12 21 3 15 4 29 1 32 -2
3 -8 -7 -11 -22z"/>
<path d="M3202 3925 c-6 -24 -9 -57 -6 -72 5 -26 8 -28 49 -25 l43 4 -8 -36
c-4 -20 -14 -44 -22 -53 -9 -12 -10 -15 0 -9 7 4 24 30 38 57 13 28 31 52 38
55 8 3 -10 27 -48 64 -33 33 -62 60 -66 60 -3 0 -11 -20 -18 -45z"/>
<path d="M2265 3878 c11 -70 36 -142 45 -127 5 7 4 24 -1 37 -6 14 -9 37 -8
51 4 47 -1 60 -22 72 -20 10 -21 9 -14 -33z"/>
<path d="M4122 3818 c-13 -22 -22 -42 -20 -44 3 -2 15 14 27 37 13 22 21 42
19 44 -2 2 -14 -14 -26 -37z"/>
<path d="M2584 3817 c-32 -27 -82 -162 -71 -192 6 -14 9 -14 34 2 16 10 30 21
33 25 13 17 63 28 76 17 18 -15 18 3 -1 56 -8 21 -12 42 -9 45 8 8 34 -31 34
-52 0 -10 5 -18 11 -18 6 0 36 -25 68 -55 61 -58 86 -72 52 -29 -11 14 -25 40
-31 58 -7 23 -21 37 -49 50 -36 15 -66 45 -104 99 -13 18 -14 18 -43 -6z"/>
<path d="M2495 3788 c-13 -42 -13 -47 -1 -64 9 -12 15 -14 20 -6 4 7 2 12 -4
12 -6 0 -4 8 6 17 15 16 15 17 -2 23 -12 5 -14 9 -6 14 14 8 16 26 3 26 -5 0
-12 -10 -16 -22z"/>
<path d="M4070 3769 c0 -9 -2 -32 -6 -50 l-5 -34 15 33 c11 24 13 39 6 50 -9
16 -9 16 -10 1z"/>
<path d="M1870 3639 c0 -3 9 -23 20 -45 10 -21 19 -32 20 -24 0 8 -9 29 -20
45 -11 17 -20 27 -20 24z"/>
<path d="M4051 3604 c0 -11 3 -14 6 -6 3 7 2 16 -1 19 -3 4 -6 -2 -5 -13z"/>
<path d="M2860 3592 c0 -5 5 -13 11 -19 11 -11 15 -36 18 -108 1 -26 3 -28 12
-12 6 10 9 41 7 68 -2 34 1 49 10 49 6 0 11 -3 11 -7 -1 -5 -1 -15 0 -23 1
-12 4 -11 12 3 12 20 -6 51 -25 44 -6 -2 -21 0 -33 4 -13 5 -23 5 -23 1z"/>
<path d="M4041 3564 c0 -11 3 -14 6 -6 3 7 2 16 -1 19 -3 4 -6 -2 -5 -13z"/>
<path d="M4046 3504 c-9 -20 -21 -79 -27 -133 -9 -92 -26 -229 -33 -261 -1 -8
-6 -39 -11 -67 -4 -29 -16 -63 -27 -75 -18 -20 -18 -23 -3 -26 13 -3 14 -7 4
-18 -6 -7 -9 -20 -6 -29 4 -8 2 -17 -3 -20 -6 -4 -10 -16 -10 -29 0 -12 -4
-26 -9 -32 -15 -15 -16 -57 -3 -81 16 -28 -16 -134 -51 -172 -60 -63 -107
-136 -107 -167 0 -37 -36 -77 -49 -55 -7 10 -11 9 -22 -6 -30 -41 -226 -73
-444 -74 -167 -1 -438 20 -461 36 -15 10 -48 15 -95 15 -56 0 -75 4 -86 18
-10 12 -16 14 -19 5 -12 -28 -45 -13 -72 32 -29 49 -38 54 -46 27 -3 -9 -15
-23 -26 -30 -26 -16 -89 -1 -114 27 -17 18 -16 20 14 43 30 21 56 65 46 75 -9
10 -73 -18 -93 -40 -26 -29 -73 -68 -73 -61 0 3 7 19 16 35 28 54 55 152 60
217 4 62 -15 175 -36 214 -6 10 -10 24 -10 32 0 8 -4 17 -9 21 -6 3 -8 -4 -5
-17 11 -50 15 -128 6 -128 -5 0 -15 13 -22 30 -12 29 -40 60 -40 44 0 -5 5
-27 11 -48 17 -62 -19 -179 -39 -126 -7 20 -10 16 -15 -29 -4 -29 -2 -62 4
-75 8 -16 8 -29 1 -43 -6 -11 -14 -42 -17 -69 -6 -44 -3 -55 29 -108 20 -33
36 -65 36 -72 0 -7 -10 -34 -23 -61 l-23 -50 -31 41 c-18 23 -50 61 -72 86
-22 25 -41 51 -41 58 0 18 -20 15 -20 -3 0 -27 73 -150 88 -150 12 1 47 -49
46 -65 0 -8 -4 -22 -8 -32 -8 -18 -2 -92 10 -123 7 -18 6 -18 -7 -5 -8 8 -23
26 -32 40 -16 22 -17 23 -17 4 0 -11 6 -26 13 -34 10 -12 9 -12 -3 -3 -45 31
-178 34 -225 4 l-20 -13 20 8 c11 5 50 10 87 12 53 3 76 -1 115 -19 l48 -22
-32 -7 c-48 -11 -111 -46 -191 -108 -177 -137 -230 -175 -282 -200 -30 -15
-65 -35 -78 -44 -32 -22 -38 -69 -14 -116 11 -20 26 -52 32 -70 7 -18 27 -44
45 -58 27 -21 43 -24 109 -24 74 0 272 -14 364 -26 35 -4 45 -10 57 -37 27
-56 42 -78 64 -93 29 -21 26 -29 -12 -30 -17 -1 -27 1 -20 3 7 2 9 11 6 19 -4
12 -8 12 -21 2 -13 -12 -14 -10 -3 10 14 27 9 37 -13 29 -18 -7 -46 -70 -46
-104 0 -13 7 -37 15 -54 9 -16 13 -34 10 -39 -3 -6 -2 -10 2 -10 5 0 8 -19 7
-42 -1 -24 -2 -56 -3 -71 -1 -18 -5 -26 -12 -21 -18 11 1 -38 25 -64 28 -31
193 -141 223 -148 13 -4 23 -14 23 -23 0 -14 2 -14 10 -1 9 13 14 7 11 -12 0
-5 4 -8 10 -8 5 0 8 -4 4 -9 -3 -5 0 -21 6 -34 13 -28 69 -44 69 -20 0 8 -4
11 -10 8 -5 -3 -10 -2 -10 3 0 20 42 19 105 -4 36 -13 65 -21 65 -18 0 4 6 2
13 -3 6 -6 29 -14 50 -17 28 -5 43 -15 55 -37 13 -23 31 -34 81 -49 35 -11 73
-20 84 -20 13 0 17 -4 12 -9 -14 -13 -124 6 -155 27 -64 43 -94 54 -147 53
-18 0 -33 4 -33 9 0 6 -7 10 -15 10 -9 0 -28 8 -43 17 l-27 17 19 -22 c11 -12
28 -22 38 -22 11 0 17 -4 13 -10 -7 -11 51 -43 68 -37 7 2 24 -4 39 -15 34
-23 155 -58 203 -58 26 0 33 -3 29 -15 -4 -9 0 -15 10 -15 15 0 21 22 17 57
-1 7 8 13 21 14 190 7 238 7 233 -1 -3 -6 -11 -10 -18 -10 -30 0 -133 -171
-151 -252 -5 -24 -3 -28 14 -28 12 0 19 4 16 9 -6 9 26 108 49 151 7 14 29 40
48 59 l36 34 129 -7 129 -8 124 42 c68 23 127 45 131 49 4 3 -12 7 -35 7 -24
1 -34 -1 -24 -5 33 -12 -161 -45 -248 -42 -158 5 -165 5 -155 15 9 9 246 53
335 61 72 7 105 15 105 26 0 16 -27 21 -49 10 -18 -10 -20 -8 -19 22 0 17 5
38 11 45 7 9 6 17 -2 25 -10 9 -11 8 -6 -8 6 -19 6 -19 -5 -2 -7 10 -10 34 -8
53 2 19 0 34 -4 34 -4 0 -8 7 -8 15 0 8 -9 24 -20 35 -15 15 -25 17 -47 11
-51 -16 -222 -33 -258 -27 -19 4 -35 3 -35 -2 0 -10 -99 0 -119 12 -11 7 -13
5 -9 -6 6 -15 1 -17 -47 -21 -14 -1 -25 -8 -25 -14 0 -7 -12 -13 -26 -13 -17
0 -23 4 -18 13 5 7 1 7 -10 -2 -14 -12 -19 -12 -26 -2 -5 10 -19 12 -44 7 -23
-4 -36 -3 -36 4 0 5 -3 9 -7 8 -5 0 -16 2 -26 7 -15 6 -16 10 -5 16 10 7 9 9
-4 9 -10 0 -18 -6 -18 -12 0 -9 -3 -9 -9 1 -5 8 -26 15 -46 15 -20 1 -40 8
-45 16 -7 11 -11 11 -23 1 -12 -9 -26 -8 -70 7 -30 10 -65 25 -78 33 -46 30
-57 30 -64 0 -6 -28 -35 -39 -35 -14 0 8 -4 12 -9 8 -13 -8 -24 12 -15 27 14
21 11 48 -5 61 -12 9 -13 9 -7 0 4 -7 4 -13 1 -13 -11 0 -70 32 -89 49 -11 9
-16 11 -12 4 5 -10 1 -10 -21 0 -50 22 -66 34 -59 45 5 9 12 8 26 0 10 -7 16
-16 13 -22 -4 -5 -1 -6 6 -1 9 5 5 15 -16 37 -15 16 -29 24 -31 18 -2 -5 -9
-7 -15 -3 -7 4 -5 -2 3 -12 13 -16 13 -18 0 -13 -8 3 -14 15 -13 27 3 20 -6
25 -34 22 -7 -1 -14 3 -14 9 -2 13 -4 21 -12 40 -10 26 -14 79 -5 74 4 -3 8
-20 8 -38 0 -19 7 -39 15 -46 8 -7 13 -16 10 -20 -3 -5 4 -6 14 -3 16 4 18 9
11 29 l-9 23 37 -17 c20 -9 39 -20 40 -24 2 -5 8 -8 13 -8 5 0 27 -11 48 -25
22 -15 45 -23 54 -19 10 3 17 2 17 -4 0 -5 12 -13 28 -17 15 -3 83 -33 152
-66 137 -66 219 -105 265 -125 17 -8 49 -15 72 -16 24 -2 43 -7 43 -11 0 -5
14 -6 31 -2 29 7 30 6 17 -14 -9 -15 -10 -23 -1 -32 17 -17 34 -1 27 25 -8 32
41 72 100 80 31 5 43 11 40 20 -3 7 3 16 13 19 10 3 56 19 103 36 79 29 186
61 390 116 47 12 124 26 171 29 47 4 92 12 100 16 9 6 -7 7 -40 3 -41 -5 -52
-3 -47 6 9 14 6 13 -179 -36 -71 -19 -137 -36 -145 -38 -74 -15 -195 -47 -238
-64 -29 -12 -64 -21 -77 -21 -14 0 -48 -11 -76 -24 -28 -14 -75 -28 -106 -31
-49 -5 -55 -4 -60 15 -3 11 -9 20 -14 20 -5 0 -18 9 -29 20 -11 11 -22 15 -25
10 -4 -6 -2 -10 3 -10 6 0 12 -7 15 -15 5 -11 -8 -8 -50 10 -31 14 -58 24 -60
22 -1 -2 28 -23 67 -47 39 -25 65 -47 58 -51 -7 -4 -4 -11 8 -19 18 -11 18
-11 -1 -4 -11 4 -43 10 -71 14 -59 9 -178 51 -243 85 -25 14 -80 40 -122 58
-135 61 -301 168 -285 185 3 3 11 0 18 -5 7 -6 57 -33 111 -61 108 -56 130
-49 42 14 -31 21 -70 49 -87 62 -18 12 -29 22 -25 22 12 0 57 -23 57 -29 0 -4
17 -15 37 -26 21 -11 53 -32 71 -47 18 -16 37 -26 41 -23 5 2 29 -15 55 -38
25 -24 46 -37 46 -30 0 14 -94 106 -151 149 -34 26 -75 47 -94 49 -41 5 -115
63 -115 91 0 3 39 4 88 0 112 -8 112 -8 112 -18 0 -4 5 -8 11 -8 6 0 34 -11
62 -25 65 -33 82 -27 27 9 -54 36 -41 46 64 49 41 1 72 5 70 9 -5 7 11 12 78
23 29 4 46 0 88 -25 43 -26 57 -29 79 -21 17 6 20 10 9 10 -10 1 -18 5 -18 10
0 4 -10 6 -22 4 -13 -2 -32 3 -43 11 -20 14 -19 15 8 25 16 6 37 11 48 11 11
0 27 4 37 9 22 12 295 73 342 77 20 2 57 8 81 13 92 22 171 9 140 -22 -25 -25
-9 -29 17 -5 44 43 67 47 238 41 172 -6 257 6 329 47 20 11 41 18 46 14 6 -3
17 3 24 14 8 10 28 22 44 25 17 4 40 16 51 27 21 21 27 74 10 85 -27 17 7 25
79 19 59 -5 84 -3 107 9 61 32 104 103 124 205 11 52 17 63 36 68 39 10 50 31
28 57 -14 16 -15 18 -2 9 14 -11 16 -11 11 7 -3 12 -9 18 -15 15 -5 -3 -36 22
-70 55 -56 55 -207 149 -220 136 -6 -7 -129 44 -148 61 -25 22 -91 46 -145 53
l-50 7 60 22 c33 13 66 25 73 27 27 9 0 25 -43 25 -32 0 -51 -7 -73 -25 -16
-13 -41 -29 -56 -35 -24 -9 -26 -8 -22 13 3 12 8 49 11 82 8 71 37 143 67 166
20 16 21 21 11 75 -15 82 -15 209 -2 279 7 33 13 84 15 113 1 29 7 58 12 65
12 15 25 118 23 177 -1 25 5 78 14 119 8 41 14 76 12 77 -2 2 -11 -12 -21 -32z
m-1266 -1239 c9 -11 16 -13 24 -5 12 12 29 13 22 1 -14 -22 71 -32 149 -17 25
5 26 4 5 -2 -23 -8 -22 -9 15 -15 22 -4 59 -7 83 -7 31 0 42 -4 42 -16 0 -8
-4 -12 -10 -9 -5 3 -7 0 -4 -9 3 -8 12 -12 20 -9 8 3 12 9 9 13 -6 9 19 20 43
20 15 0 15 -2 2 -10 -11 -7 -5 -8 20 -3 19 3 38 10 41 16 4 5 11 1 17 -9 9
-16 14 -17 48 -6 29 9 40 9 46 -1 5 -8 9 -6 14 6 3 9 12 17 20 17 17 0 18 -17
2 -23 -10 -4 -10 -6 -1 -6 6 -1 14 3 18 8 3 6 17 4 32 -4 15 -8 30 -11 33 -6
3 5 20 12 38 16 25 5 33 3 39 -11 6 -15 7 -14 15 6 7 18 11 20 23 10 11 -9 15
-9 15 -1 0 7 5 9 13 4 23 -14 67 -10 67 7 1 12 3 11 11 -3 14 -23 56 -15 77
14 13 19 15 19 32 4 17 -15 19 -15 34 7 9 12 16 16 16 9 0 -11 3 -11 15 -1 8
6 19 9 24 5 7 -4 9 1 5 12 -5 16 -4 16 10 -1 9 -11 16 -15 16 -8 0 15 63 10
83 -6 11 -10 17 -9 27 3 13 15 42 20 53 9 8 -8 132 -53 177 -64 19 -5 58 -14
86 -21 75 -16 108 -46 109 -98 1 -28 -3 -41 -12 -41 -8 0 -16 -6 -19 -14 -3
-8 -12 -12 -20 -9 -10 4 -12 0 -8 -10 8 -23 -61 -91 -87 -84 -10 3 -16 1 -13
-4 3 -5 -1 -16 -10 -24 -16 -16 -30 -20 -22 -6 3 5 -5 11 -18 13 -17 4 -23 1
-19 -8 3 -8 -6 -18 -22 -24 -18 -7 -25 -15 -21 -25 3 -8 1 -15 -3 -15 -5 0
-11 4 -13 9 -1 5 -23 11 -48 12 -25 2 -55 9 -67 16 -13 9 -23 10 -27 4 -8 -12
-30 -9 -52 9 -10 8 -15 10 -11 3 5 -7 -1 -16 -12 -22 -14 -8 -21 -8 -25 2 -5
9 -7 9 -12 -1 -3 -6 -10 -10 -15 -6 -5 3 -9 0 -9 -6 0 -7 -6 -10 -12 -7 -7 2
-21 0 -32 -5 -13 -7 -16 -7 -12 1 4 6 4 11 -1 11 -4 0 -18 3 -30 6 -17 5 -23
2 -23 -10 0 -9 5 -16 12 -16 6 0 9 -2 6 -5 -8 -8 -39 6 -33 14 2 4 -2 8 -10 8
-10 0 -11 -6 -5 -23 8 -19 6 -22 -8 -17 -15 6 -15 5 -3 -10 7 -9 21 -17 30
-17 14 0 14 -2 1 -10 -13 -8 -12 -10 3 -10 11 0 17 -5 14 -12 -2 -7 -16 -12
-31 -11 -14 1 -24 -2 -21 -8 9 -14 0 -11 -37 11 -20 12 -38 16 -47 11 -7 -5
-28 -5 -47 -1 -25 6 -39 4 -49 -7 -8 -8 -15 -10 -15 -5 0 11 -18 11 -37 -1 -9
-5 -13 -2 -13 8 0 9 -4 14 -10 10 -5 -3 -7 -12 -4 -19 3 -7 -2 -16 -10 -19 -9
-4 -16 -2 -16 3 0 5 -6 7 -13 4 -8 -3 -19 2 -26 10 -6 7 -21 12 -31 9 -13 -3
-20 0 -20 8 0 8 -13 20 -29 27 -19 9 -28 18 -24 28 7 19 23 18 38 -2 10 -14
15 -15 34 -4 16 8 21 9 16 1 -5 -8 1 -10 18 -6 18 5 28 2 37 -12 10 -16 11
-16 7 5 -6 25 -4 26 25 11 14 -8 23 -8 31 0 15 15 27 14 23 -1 -1 -7 -1 -9 2
-4 2 4 8 2 13 -5 7 -11 9 -9 9 6 1 19 1 19 15 1 7 -10 19 -15 25 -11 6 4 16 2
23 -3 7 -5 23 -9 37 -7 23 1 26 6 22 35 -1 6 -18 10 -37 10 -19 0 -35 -4 -35
-10 0 -5 -5 -10 -11 -10 -5 0 -8 4 -5 9 9 13 -20 21 -32 9 -8 -8 -16 -8 -27 2
-8 7 -15 9 -15 5 0 -4 -7 -2 -15 5 -12 10 -15 9 -15 -6 0 -16 -2 -17 -10 -4
-7 11 -12 12 -20 4 -8 -8 -23 -7 -53 3 -23 8 -50 15 -59 16 -10 1 -18 5 -18
10 0 5 -14 5 -32 2 -26 -6 -30 -5 -25 9 6 15 2 16 -26 11 -17 -3 -48 -7 -67
-9 -19 -2 -23 -1 -9 1 25 4 26 5 14 38 -6 19 -14 37 -17 41 -10 9 -30 -36 -24
-52 3 -8 1 -14 -4 -14 -6 0 -10 6 -10 13 -1 6 -7 -1 -15 -18 l-13 -30 2 33 c2
17 -1 32 -5 32 -5 0 -9 -6 -9 -12 0 -10 -2 -10 -9 0 -6 11 -10 10 -15 -4 -6
-15 -8 -16 -24 0 -10 9 -24 16 -30 16 -7 0 -12 5 -12 10 0 17 -28 23 -43 9 -7
-7 -13 -22 -12 -33 2 -15 1 -15 -2 -3 -5 19 -37 40 -47 29 -4 -3 -4 1 -1 10 4
9 2 19 -4 23 -7 3 -11 -2 -11 -15 0 -11 -7 -23 -15 -26 -8 -4 -12 -10 -9 -15
3 -5 1 -9 -5 -9 -5 0 -16 -3 -25 -6 -11 -4 -16 -1 -16 10 0 18 -15 21 -25 6
-5 -8 -11 -7 -21 1 -16 13 -19 39 -5 39 11 0 25 54 24 85 -3 48 -17 103 -35
138 -11 22 -17 41 -14 44 3 3 0 15 -6 26 -8 16 -7 23 8 34 23 17 29 16 44 -2z
m-75 -136 c9 -16 12 -29 7 -29 -7 0 -20 20 -40 64 -11 23 20 -9 33 -35z m462
-211 c-3 -8 -6 -5 -6 6 -1 11 2 17 5 13 3 -3 4 -12 1 -19z m-818 -91 c1 14 64
6 69 -9 2 -4 10 -8 18 -8 8 0 14 -4 14 -9 0 -5 6 -8 13 -8 28 1 77 -16 77 -28
0 -8 8 -11 20 -8 15 4 20 0 21 -13 1 -18 2 -18 6 -1 4 14 8 16 18 7 8 -7 20
-10 27 -7 7 2 21 0 31 -5 11 -6 17 -5 17 2 0 6 5 8 10 5 6 -3 10 -1 10 6 0 7
11 9 35 5 20 -4 44 -2 55 4 16 9 25 8 38 -2 12 -10 14 -10 8 0 -6 10 -1 11 20
6 17 -4 25 -3 21 3 -11 17 46 8 106 -17 31 -13 57 -28 57 -34 0 -7 3 -7 10 0
11 11 70 7 70 -5 0 -4 11 -8 25 -9 14 -1 52 -11 85 -22 34 -11 82 -23 108 -26
26 -4 57 -13 70 -21 29 -18 121 -24 417 -26 127 -2 236 -6 242 -10 17 -11 -24
-67 -49 -67 -10 0 -18 -4 -18 -9 0 -5 -19 -11 -42 -14 -24 -3 -65 -10 -93 -17
-62 -14 -360 -4 -535 18 -81 10 -198 9 -243 -3 -22 -6 -25 -10 -16 -21 6 -8
15 -11 20 -8 5 3 9 3 9 0 0 -2 3 -12 7 -22 4 -12 3 -15 -5 -10 -7 4 -12 2 -12
-4 0 -5 -12 -10 -27 -9 -16 1 -36 -2 -45 -6 -12 -5 -18 -3 -18 6 0 11 -2 12
-9 1 -4 -7 -16 -13 -27 -12 -10 0 -38 0 -61 0 -24 -1 -43 4 -43 10 0 5 -7 10
-15 10 -8 0 -15 -9 -15 -20 0 -11 -5 -20 -11 -20 -5 0 -7 5 -4 10 3 6 -1 13
-11 17 -15 6 -15 7 4 14 28 10 29 33 2 26 -12 -3 -17 -1 -14 5 3 5 0 8 -7 7
-8 -2 -23 2 -35 8 -12 7 -34 10 -50 7 -16 -3 -40 -7 -54 -8 -14 -2 -33 -7 -42
-11 -13 -5 -18 -3 -18 9 0 9 -8 16 -17 17 -10 0 -33 2 -50 3 -23 3 -33 -1 -33
-11 0 -10 -11 -13 -42 -12 -55 3 -68 8 -68 25 0 10 -6 11 -22 5 -13 -4 -32 -6
-43 -3 -11 3 -44 6 -73 6 -41 1 -58 6 -78 25 -14 13 -31 21 -40 17 -8 -3 -12
-2 -9 3 3 5 0 13 -6 16 -7 5 -3 12 10 22 12 8 25 11 31 8 6 -3 7 1 4 9 -7 19
7 21 25 4 11 -11 13 -10 8 5 -4 9 -2 17 3 17 6 0 10 7 10 15 0 8 -9 15 -20 15
-11 0 -20 6 -21 13 0 10 -2 10 -6 0 -7 -19 -53 -16 -53 3 0 14 3 14 15 4 8 -7
15 -8 15 -2 0 5 -6 15 -14 21 -13 11 -12 15 2 32 9 11 19 32 22 47 4 18 11 26
22 24 9 -1 19 5 21 15 3 11 5 7 6 -11 1 -24 3 -27 16 -16 8 7 12 16 9 21 -11
18 8 8 27 -13 16 -20 20 -21 29 -8 9 13 10 13 10 0 1 -12 3 -12 14 2 7 10 17
14 21 10 5 -4 5 1 2 11 -4 11 -3 16 3 12 6 -3 10 2 11 12 1 13 3 11 9 -7 4
-14 8 -19 9 -13z m861 -23 c0 -8 -5 -12 -10 -9 -6 4 -8 11 -5 16 9 14 15 11
15 -7z m77 -20 c-3 -3 -12 -4 -19 -1 -8 3 -5 6 6 6 11 1 17 -2 13 -5z m33 -14
c0 -5 -2 -10 -4 -10 -3 0 -8 5 -11 10 -3 6 -1 10 4 10 6 0 11 -4 11 -10z
m-1383 -32 c-3 -8 -6 -5 -6 6 -1 11 2 17 5 13 3 -3 4 -12 1 -19z m-44 -114
c-14 -22 -19 -25 -21 -11 -4 21 -22 23 -22 2 0 -8 -4 -15 -9 -15 -5 0 -11 -10
-13 -22 -2 -13 -6 -22 -10 -20 -5 1 -24 2 -43 2 -31 0 -35 3 -35 25 0 14 -3
24 -7 23 -10 -4 -13 5 -13 34 0 12 3 18 7 15 3 -4 17 0 31 9 30 20 45 4 36
-38 -4 -21 -2 -28 10 -28 9 0 16 7 16 15 0 16 34 38 44 28 3 -3 6 3 6 15 0 11
8 25 18 31 25 14 29 -30 5 -65z m60 29 c-19 -29 -21 -29 -18 0 3 26 1 24 19
24 12 0 12 -4 -1 -24z m107 -19 c0 -2 -7 -4 -15 -4 -8 0 -15 4 -15 10 0 5 7 7
15 4 8 -4 15 -8 15 -10z m65 -4 c-3 -5 -14 -10 -23 -10 -15 0 -15 2 -2 10 20
13 33 13 25 0z m-270 -60 c-3 -4 0 -11 5 -13 6 -3 5 -4 -2 -3 -7 1 -15 11 -16
21 -3 11 0 15 7 10 6 -3 9 -10 6 -15z m-18 -42 c-3 -8 -6 -5 -6 6 -1 11 2 17
5 13 3 -3 4 -12 1 -19z m1712 -803 c-3 -2 -77 -20 -165 -39 -226 -48 -224 -48
-218 -31 4 10 14 13 32 8 18 -4 23 -3 17 7 -5 9 -2 10 11 6 11 -3 78 7 149 23
122 28 184 37 174 26z m-814 -36 c12 -6 -5 -7 -45 -3 -36 3 -72 10 -80 15 -19
12 96 0 125 -12z m831 -14 c1 -8 -2 -15 -7 -15 -5 0 -9 4 -9 10 0 5 -6 7 -14
4 -9 -3 -12 -12 -9 -22 6 -14 4 -14 -17 1 -14 10 -28 13 -34 8 -11 -8 -50 -15
-171 -27 -33 -4 -64 -10 -70 -14 -9 -6 -32 -6 -70 0 -20 3 48 19 113 25 37 4
71 10 77 13 5 3 30 7 55 9 25 2 68 9 95 17 54 14 58 13 61 -9z m-440 -16 c4
-8 9 -7 15 2 5 9 9 -10 9 -49 0 -45 -4 -62 -12 -60 -26 4 -57 -14 -66 -40
l-10 -27 1 33 c0 18 4 35 8 38 5 2 6 11 3 19 -4 8 -10 12 -15 9 -5 -3 -9 9 -9
25 0 24 4 31 20 31 11 0 20 5 20 11 0 6 -9 8 -21 4 -15 -5 -19 -4 -15 4 9 14
63 14 72 0z m-151 -44 c46 -4 56 -3 45 5 -12 9 -12 11 -1 8 8 -3 17 -10 19
-18 4 -10 -12 -11 -82 -6 -48 4 -97 11 -109 16 -17 8 -11 9 23 5 25 -2 72 -7
105 -10z m272 -40 c0 -10 -6 -14 -14 -10 -8 3 -18 5 -21 6 -4 0 2 4 13 9 11 5
20 9 21 9 0 1 1 -6 1 -14z m232 1 c9 -10 8 -15 -3 -19 -9 -4 -18 -1 -22 5 -5
7 -2 8 6 3 10 -6 12 -4 7 8 -8 21 -3 22 12 3z m66 -4 c-3 -3 -11 0 -18 7 -9
10 -8 11 6 5 10 -3 15 -9 12 -12z m-125 -2 c8 -5 11 -10 5 -10 -5 0 -17 5 -25
10 -8 5 -10 10 -5 10 6 0 17 -5 25 -10z m-175 -40 c-3 -5 -14 -10 -23 -9 -14
0 -13 2 3 9 27 11 27 11 20 0z m310 0 c3 -6 -1 -7 -9 -4 -18 7 -21 14 -7 14 6
0 13 -4 16 -10z m-387 -75 c-3 -3 -9 2 -12 12 -6 14 -5 15 5 6 7 -7 10 -15 7
-18z m-131 -11 c-3 -3 -12 -4 -19 -1 -8 3 -5 6 6 6 11 1 17 -2 13 -5z"/>
<path d="M2860 1980 c-8 -5 -12 -11 -9 -14 2 -3 11 -1 19 4 8 5 12 11 9 14 -2
3 -11 1 -19 -4z"/>
<path d="M2830 1961 c0 -6 4 -13 10 -16 6 -3 7 1 4 9 -7 18 -14 21 -14 7z"/>
<path d="M2917 1953 c-4 -3 -7 -11 -7 -17 0 -6 5 -5 12 2 6 6 9 14 7 17 -3 3
-9 2 -12 -2z"/>
<path d="M3190 1918 c0 -5 7 -11 15 -14 8 -4 12 -10 9 -15 -6 -11 4 -11 31 1
19 8 19 9 -4 9 -14 1 -21 6 -18 14 3 8 -3 13 -14 13 -11 0 -19 -4 -19 -8z"/>
<path d="M3913 1896 c0 -8 8 -11 19 -8 10 2 15 8 12 13 -8 14 -31 11 -31 -5z"/>
<path d="M2153 1733 c-19 -7 -16 -19 6 -19 11 0 17 5 14 13 -3 7 -6 13 -7 12
0 0 -7 -3 -13 -6z"/>
<path d="M2930 1489 c0 -5 -4 -8 -9 -4 -5 3 -13 1 -16 -5 -4 -6 -16 -8 -28 -4
-17 5 -16 2 9 -21 l29 -27 6 24 c4 12 8 16 8 8 1 -12 3 -13 10 -1 5 7 13 11
19 7 5 -3 13 1 16 10 4 12 2 15 -9 10 -8 -3 -15 -1 -15 4 0 6 -4 10 -10 10 -5
0 -10 -5 -10 -11z"/>
<path d="M3021 1497 c2 -1 13 -9 24 -17 19 -14 19 -14 6 3 -7 9 -18 17 -24 17
-6 0 -8 -1 -6 -3z"/>
<path d="M3125 590 c-3 -5 -1 -10 4 -10 6 0 11 5 11 10 0 6 -2 10 -4 10 -3 0
-8 -4 -11 -10z"/>
<path d="M3091 564 c0 -11 3 -14 6 -6 3 7 2 16 -1 19 -3 4 -6 -2 -5 -13z"/>
<path d="M1686 3505 c-5 -18 0 -39 16 -67 38 -69 52 -58 23 18 -14 37 -27 69
-29 71 -2 2 -7 -8 -10 -22z"/>
<path d="M1931 3355 c0 -5 6 -21 14 -35 8 -14 14 -20 14 -15 0 6 -6 21 -14 35
-8 14 -14 21 -14 15z"/>
<path d="M2872 3310 c0 -19 2 -27 5 -17 2 9 2 25 0 35 -3 9 -5 1 -5 -18z"/>
<path d="M1968 3174 c-3 -5 3 -22 13 -39 11 -16 19 -23 19 -15 -1 21 -26 64
-32 54z"/>
<path d="M1591 3135 c-19 -45 -31 -122 -23 -144 16 -44 152 -138 152 -105 0
16 -22 44 -35 44 -16 0 -57 50 -63 78 -2 9 -7 49 -11 87 -7 68 -8 69 -20 40z"/>
<path d="M4415 2999 c-4 -6 -5 -12 -2 -15 2 -3 7 2 10 11 7 17 1 20 -8 4z"/>
<path d="M2024 2924 c6 -26 17 -46 28 -50 9 -2 20 -19 23 -37 4 -18 9 -40 12
-51 3 -12 1 -16 -6 -12 -27 17 -8 -14 24 -38 19 -15 35 -25 35 -23 0 3 -12 31
-26 63 -14 32 -33 79 -41 104 -9 25 -25 55 -37 67 l-22 22 10 -45z"/>
<path d="M4395 2950 c-4 -12 -5 -24 -2 -27 3 -2 8 5 12 17 4 12 5 24 2 27 -3
2 -8 -5 -12 -17z"/>
<path d="M4380 2909 c0 -2 -7 -26 -15 -54 -9 -27 -12 -45 -7 -40 13 16 34 86
28 92 -3 4 -6 4 -6 2z"/>
<path d="M1605 2873 c16 -34 101 -139 173 -213 72 -73 30 -13 -65 96 -48 55
-96 111 -106 125 -17 24 -17 24 -2 -8z"/>
<path d="M1 1408 l-1 -1408 1408 1 c774 1 1376 5 1337 10 -116 13 -285 41
-285 48 0 3 -17 7 -38 7 -57 2 -313 75 -305 87 4 6 1 7 -6 3 -7 -5 -58 9 -113
30 -79 29 -97 39 -82 46 13 5 10 6 -11 3 -24 -5 -65 12 -200 79 -939 467
-1563 1351 -1690 2396 -11 89 -13 -107 -14 -1302z"/>
<path d="M6106 2729 c-18 -213 -91 -519 -183 -759 -408 -1070 -1368 -1816
-2513 -1955 -89 -11 107 -13 1303 -14 l1407 -1 0 1405 c0 773 -2 1405 -4 1405
-2 0 -6 -36 -10 -81z"/>
<path d="M1631 2684 c0 -11 3 -14 6 -6 3 7 2 16 -1 19 -3 4 -6 -2 -5 -13z"/>
<path d="M1853 2584 c28 -46 168 -194 184 -194 7 0 13 -8 14 -17 0 -11 3 -13
6 -5 2 6 -28 47 -69 91 -69 75 -150 149 -135 125z"/>
<path d="M1773 2293 c-13 -2 -23 -8 -23 -13 0 -12 28 -20 45 -13 9 3 24 -2 34
-11 10 -9 20 -14 23 -11 12 12 96 11 127 -1 42 -18 49 -12 21 16 -19 19 -31
21 -85 18 -42 -2 -69 2 -77 10 -12 12 -24 13 -65 5z"/>
<path d="M4621 2064 c0 -11 3 -14 6 -6 3 7 2 16 -1 19 -3 4 -6 -2 -5 -13z"/>
<path d="M1427 1993 c4 -10 2 -14 -4 -10 -6 4 -10 -4 -10 -21 0 -15 2 -21 4
-14 3 6 9 10 14 6 5 -3 9 9 9 25 0 17 -4 31 -10 31 -5 0 -6 -7 -3 -17z"/>
<path d="M3497 1319 c-9 -5 -36 -14 -60 -19 l-42 -9 47 4 c51 5 128 33 93 34
-11 0 -28 -4 -38 -10z"/>
<path d="M4049 1289 c-39 -21 -72 -24 -100 -8 -12 6 -25 7 -32 1 -7 -5 -34 -9
-61 -10 -26 0 -69 -5 -95 -11 -50 -11 -197 -28 -301 -35 -36 -3 -107 -10 -159
-16 -51 -7 -102 -10 -112 -7 -11 3 -19 1 -19 -3 0 -17 68 -22 161 -11 52 6
119 13 149 16 254 22 314 26 380 24 41 -1 85 1 97 5 30 10 48 -1 32 -20 -8
-10 -8 -14 -1 -14 6 0 21 14 34 30 12 17 30 30 39 30 10 0 21 5 24 11 4 5 18
9 33 7 15 -2 27 3 30 11 3 9 -1 11 -17 6 -11 -3 -21 -2 -21 3 0 14 -25 10 -61
-9z"/>
<path d="M2903 1293 c9 -2 17 -9 17 -14 0 -6 5 -7 11 -3 14 8 -8 24 -31 23
-11 -1 -10 -3 3 -6z"/>
<path d="M3348 1283 c7 -3 16 -2 19 1 4 3 -2 6 -13 5 -11 0 -14 -3 -6 -6z"/>
<path d="M2938 1243 c7 -3 16 -2 19 1 4 3 -2 6 -13 5 -11 0 -14 -3 -6 -6z"/>
<path d="M2751 1235 c3 -2 31 -16 62 -30 44 -19 57 -22 57 -11 0 9 -21 21 -54
30 -56 17 -73 19 -65 11z"/>
<path d="M2830 1143 c1 -14 27 -43 39 -43 23 0 7 45 -16 48 -13 2 -23 0 -23
-5z"/>
<path d="M3989 1131 c-13 -11 -19 -20 -14 -20 14 0 50 28 43 34 -3 3 -16 -3
-29 -14z"/>
<path d="M2520 1110 c19 -16 38 -29 43 -30 10 0 47 -38 47 -48 0 -9 37 -42 48
-42 5 0 34 -15 65 -34 52 -31 55 -32 40 -10 -15 24 -15 24 15 24 38 0 82 -19
82 -36 0 -7 8 -11 18 -9 9 1 23 -2 30 -8 6 -5 12 -6 12 -1 0 5 5 2 11 -6 9
-12 10 -12 5 3 -3 10 -6 26 -6 35 0 9 -4 22 -8 29 -11 17 -113 31 -165 23 -37
-5 -49 -3 -73 17 -16 13 -34 28 -40 32 -89 71 -198 125 -124 61z"/>
<path d="M3930 1100 c-8 -5 -10 -10 -5 -10 6 0 17 5 25 10 8 5 11 10 5 10 -5
0 -17 -5 -25 -10z"/>
<path d="M4049 1083 c-1 -5 0 -23 1 -41 1 -18 -6 -45 -16 -60 -20 -31 -95
-102 -107 -102 -5 0 -5 -4 -2 -10 3 -5 0 -7 -8 -5 -7 3 -33 -3 -58 -14 -24
-12 -38 -21 -31 -21 7 0 20 -7 28 -15 10 -10 11 -15 3 -15 -8 0 -9 -3 0 -13 6
-8 8 -17 4 -21 -4 -4 1 -4 12 0 18 7 18 7 -1 -12 -19 -19 -19 -19 -22 3 -2 13
-13 30 -25 38 -32 23 -46 18 -17 -6 l25 -21 -27 16 c-37 22 -48 20 -19 -4 13
-11 19 -20 13 -20 -5 0 -15 7 -22 15 -7 8 -19 15 -27 15 -11 0 -8 -6 8 -21 13
-11 18 -17 10 -13 -7 3 -17 1 -21 -6 -5 -9 -9 -9 -14 -1 -4 6 -2 11 4 11 6 0
8 5 5 10 -3 6 -13 10 -21 10 -8 0 -12 -4 -9 -10 4 -6 -1 -7 -12 -3 -13 4 -11
0 7 -18 20 -20 29 -23 48 -15 21 9 42 2 30 -9 -4 -5 -47 -11 -91 -14 -5 -1 -6
-5 -3 -10 4 -5 -3 -7 -14 -4 -13 3 -22 -1 -26 -11 -13 -33 0 -146 17 -146 5 0
6 -6 3 -13 -4 -11 8 -11 68 2 40 8 74 18 76 22 2 5 10 5 19 2 10 -4 14 -2 10
4 -4 6 1 17 10 24 15 12 16 12 10 -3 -5 -14 -1 -18 14 -18 17 0 18 3 8 21 -11
21 -10 21 11 6 21 -14 26 -14 52 -1 16 8 37 12 48 9 10 -3 22 0 26 6 5 9 2 10
-12 6 -18 -7 -18 -6 1 8 12 10 21 12 23 5 6 -16 24 -12 48 11 21 20 23 56 3
43 -5 -3 -9 0 -9 6 0 6 -4 8 -10 5 -6 -3 -7 1 -4 10 4 8 0 23 -7 32 -10 12
-10 15 -1 9 9 -5 11 -1 8 16 -3 13 -5 23 -6 23 -1 0 -3 15 -5 33 -1 21 3 36
11 39 8 3 14 11 14 19 0 8 4 14 9 14 5 0 15 16 21 36 21 63 -8 174 -45 174 -8
0 -15 -3 -16 -7z m27 -138 c-9 -14 -21 -25 -27 -25 -14 0 -1 40 20 64 14 16
16 17 19 2 2 -10 -4 -28 -12 -41z m-189 -99 c-15 -11 -15 -15 -3 -19 8 -3 16
-1 18 5 2 6 10 3 17 -6 12 -14 12 -16 -4 -10 -13 5 -16 4 -11 -4 8 -13 -20 -6
-42 11 -11 8 -9 13 10 23 30 17 38 17 15 0z m8 -56 c3 -5 2 -10 -4 -10 -5 0
-13 5 -16 10 -3 6 -2 10 4 10 5 0 13 -4 16 -10z m37 -117 c-10 -4 -10 -8 0
-21 9 -13 8 -13 -8 1 -16 15 -17 19 -4 27 8 5 17 6 20 3 3 -3 -1 -8 -8 -10z
m-32 -29 c0 -2 -9 0 -20 6 -11 6 -20 13 -20 16 0 2 9 0 20 -6 11 -6 20 -13 20
-16z m-45 -2 c-3 -3 -11 0 -18 7 -9 10 -8 11 6 5 10 -3 15 -9 12 -12z m-127
-27 c-6 -6 -58 -14 -58 -9 0 8 44 22 53 17 5 -3 7 -7 5 -8z m167 5 c3 -6 -1
-7 -9 -4 -18 7 -21 14 -7 14 6 0 13 -4 16 -10z m-90 -10 c3 -6 -1 -7 -9 -4
-18 7 -21 14 -7 14 6 0 13 -4 16 -10z m5 -38 c0 -12 -3 -12 -15 -2 -8 7 -15
13 -15 15 0 1 7 2 15 2 8 0 15 -7 15 -15z m-65 -30 c-6 -6 -75 21 -75 29 0 4
18 0 39 -9 22 -9 38 -19 36 -20z m10 20 c-3 -3 -11 0 -18 7 -9 10 -8 11 6 5
10 -3 15 -9 12 -12z"/>
<path d="M3960 970 c-9 -6 -10 -10 -3 -10 6 0 15 5 18 10 8 12 4 12 -15 0z"/>
<path d="M3925 939 c-4 -6 -5 -13 -2 -16 7 -7 27 6 27 18 0 12 -17 12 -25 -2z"/>
<path d="M2044 824 c3 -9 6 -20 6 -25 0 -5 7 -9 15 -9 19 0 19 17 1 36 -19 19
-30 18 -22 -2z"/>
<path d="M3740 810 c-30 -11 -67 -19 -82 -19 -17 -1 -28 -7 -28 -15 0 -9 8
-13 23 -9 22 4 22 4 2 -9 -27 -17 -22 -51 6 -43 10 3 28 8 40 11 l21 6 -21 15
c-31 21 -26 29 32 48 52 17 91 35 72 34 -5 -1 -35 -9 -65 -19z"/>
<path d="M3825 810 c3 -5 11 -10 16 -10 6 0 7 5 4 10 -3 6 -11 10 -16 10 -6 0
-7 -4 -4 -10z"/>
<path d="M3066 778 c3 -4 26 -8 51 -8 26 0 44 3 41 6 -9 9 -98 11 -92 2z"/>
<path d="M2007 764 c-11 -11 -8 -64 3 -64 14 0 24 50 13 61 -5 5 -12 6 -16 3z"/>
<path d="M2868 723 c6 -2 18 -2 25 0 6 3 1 5 -13 5 -14 0 -19 -2 -12 -5z"/>
<path d="M2946 713 c-6 -14 -5 -15 5 -6 7 7 10 15 7 18 -3 3 -9 -2 -12 -12z"/>
<path d="M1970 665 c-10 -12 -10 -21 -1 -38 11 -21 11 -20 6 6 -3 16 -2 26 3
23 5 -3 9 1 9 9 0 19 -2 19 -17 0z"/>
<path d="M2255 532 c54 -50 145 -118 145 -106 0 3 7 1 15 -6 8 -7 15 -9 15 -4
0 5 -17 19 -38 31 -20 12 -66 46 -102 77 -79 68 -104 74 -35 8z"/>
<path d="M3705 470 c-3 -5 1 -10 9 -10 8 0 18 5 21 10 3 6 -1 10 -9 10 -8 0
-18 -4 -21 -10z"/>
<path d="M2475 391 c8 -15 85 -54 92 -47 3 2 -18 17 -47 31 -29 15 -49 21 -45
16z"/>
<path d="M2893 273 c-18 -7 -16 -23 2 -23 8 0 15 7 15 15 0 8 -1 15 -2 14 -2
0 -9 -3 -15 -6z"/>
<path d="M2940 270 c-13 -8 -12 -10 3 -10 9 0 17 5 17 10 0 12 -1 12 -20 0z"/>
<path d="M1955 223 c27 -28 67 -41 59 -19 -6 15 -18 20 -38 17 -4 -1 -16 4
-25 11 -9 6 -7 2 4 -9z"/>
<path d="M2176 161 c-4 -5 -2 -12 3 -15 5 -4 12 -2 15 3 4 5 2 12 -3 15 -5 4
-12 2 -15 -3z"/>
<path d="M2325 131 c6 -19 3 -21 -19 -17 -37 7 -32 -10 5 -18 44 -9 56 -7 39
4 -8 5 -10 10 -3 10 18 0 8 35 -11 38 -14 3 -16 -1 -11 -17z"/>
<path d="M2505 133 c4 -10 8 -24 8 -30 0 -16 17 -17 17 -2 0 6 7 3 16 -5 17
-18 30 -20 38 -7 7 10 -20 33 -58 49 -26 12 -28 11 -21 -5z"/>
<path d="M2245 120 c4 -6 11 -8 16 -5 14 9 11 15 -7 15 -8 0 -12 -5 -9 -10z"/>
<path d="M2365 109 c5 -24 13 -35 20 -28 7 7 -6 49 -16 49 -4 0 -6 -10 -4 -21z"/>
<path d="M2395 120 c-3 -5 -1 -19 5 -31 9 -17 18 -20 41 -15 18 3 29 1 29 -5
0 -6 9 -9 20 -6 11 3 22 1 25 -3 6 -10 45 -9 45 1 0 4 -7 12 -15 19 -10 9 -15
9 -15 1 0 -19 -16 -12 -28 12 -6 12 -11 16 -11 10 -1 -19 -31 -16 -38 3 -6 15
-8 15 -20 -2 -11 -15 -13 -16 -13 -2 0 20 -16 32 -25 18z"/>
<path d="M2465 110 c-3 -5 -1 -10 4 -10 6 0 11 5 11 10 0 6 -2 10 -4 10 -3 0
-8 -4 -11 -10z"/>
</g>
</svg>
